<?xml version="1.0" encoding="UTF-8"?>
<svg id="Layer_1" data-name="Layer 1" xmlns="http://www.w3.org/2000/svg" viewBox="0 0 458.84 786.91">
  <defs>
    <style>
      .cls-1 {
        fill: #fff;
        stroke: #000;
        stroke-width: 12px;
      }

      .cls-1, .cls-2, .cls-3 {
        stroke-miterlimit: 10;
      }

      .cls-2, .cls-4 {
        fill: none;
        stroke-linecap: round;
      }

      .cls-2, .cls-4, .cls-3 {
        stroke: #fff6d4;
      }

      .cls-2, .cls-3 {
        stroke-width: 32px;
      }

      .cls-4 {
        stroke-linejoin: round;
        stroke-width: 40px;
      }

      .cls-5 {
        fill: gold;
      }

      .cls-6 {
        fill: #fbc608;
      }

      .cls-3 {
        fill: #fff6d4;
      }
    </style>
  </defs>
  <g>
    <path class="cls-4" d="M192.08,610.81s12.11,87.88-64.6,129.19l72.67,26.91"/>
    <path class="cls-4" d="M309.2,620.47s39.67,79.35-19.72,143.09l77.46,2.16"/>
    <g>
      <rect class="cls-5" x="34.85" y="131.64" width="378.81" height="436.34"/>
      <path class="cls-6" d="M115.97,415.55s-40.34,70.45-48.81,86.6c-11.16,21.39,4.1,30.56,4.1,30.56,0,0,20.32,10.21,30.48-8.13,8.62-15.59,36.75-65.2,46.75-80.5,12.88-19.7,18.3-26.49,35.58-26.49h85.04c17.41,0,22.91,6.79,35.88,26.49,10.07,15.3,38.41,64.91,47.11,80.5,10.26,18.34,30.74,8.13,30.74,8.13,0,0,15.34-9.16,4.08-30.56-8.5-16.15-49.17-86.6-49.17-86.6,0,0-10.22-15.62-10.22-28.52v-78.73c0-12.88,10.22-28.46,10.22-28.46,0,0,40.67-70.28,49.17-86.38,11.27-21.35-4.08-30.5-4.08-30.5,0,0-20.48-10.17-30.74,8.14-8.7,15.54-37.04,65.04-47.11,80.29-12.97,19.67-18.47,26.41-35.88,26.41h-85.04c-17.27,0-22.7-6.74-35.58-26.41-10-15.25-38.13-64.75-46.75-80.29-10.16-18.31-30.48-8.14-30.48-8.14,0,0-15.25,9.15-4.1,30.5,8.47,16.1,48.81,86.38,48.81,86.38,0,0,10.16,15.58,10.16,28.46v78.73c0,12.9-10.16,28.52-10.16,28.52ZM268.77,43.37h-120.59c-10.3,0-18.67,8.34-18.67,18.64h0c0,10.3,8.36,18.62,18.67,18.62h120.59c10.28,0,18.64-8.31,18.64-18.61s-8.36-18.65-18.64-18.65h0ZM8.91,82.68c3.04-6.11,22.7-45.06,22.7-45.06,0,0-7.49-4.42-10.87-6.11-3.37-1.68-5.93-3.83-1.31-12.53,4.93-9.39,9.81-6.66,9.81-6.66,0,0,6.59,3.65,13.89,7.35C55.32,1.68,72.28-.05,77.36,0,80.72.02,97.34,0,102.42,0s9.83.67,11.88,3.39c2.01,2.72,6.74,5.08,12.53,5.08h171.76c1.69.15,2.03-1.02,3.08-1.69,11.51-6.44,24.2-.16,26.94,2.88,2.68,3.05,13.54,16.26,19.95,23.53,6.46,7.29,12.05,8.66,16.44,10.02-2.69-3.57-.66-6.97-.66-6.97l2.54-5.06-3.56-9.65-3.21-1.71,1.87-4.42s2.03.87,5.78,2.72c3.68,1.87,3.68,3.57,3.68,3.57,1.71,6.08,6.11,6.42,6.11,6.42,0,0,9.84-18.62,11.19-21,1.37-2.39,4.06-9.82,36.92,7.8,32.88,17.62,25.1,24.39,25.1,24.39l-11.19,21.65,3.39,2.73-8.16,16.27s2.06,1,9.19,5.76c7.08,4.75,14.88,9.48,14.88,22.36v472.97c0,35.58-10.18,51.84-49.81,51.84H47.2c-23.38,0-45.75-12.22-45.75-52.85V112.47c0-23.36,4.43-23.71,7.47-29.79h0ZM174.95,310.34h101.6c8.99,0,16.28,7.27,16.28,16.26v44.04c0,8.99-7.29,16.28-16.28,16.28h-101.6c-8.99,0-16.27-7.28-16.28-16.27v-44.06c0-8.98,7.28-16.26,16.26-16.26,0,0,.01,0,.02,0"/>
    </g>
    <ellipse class="cls-1" cx="365.9" cy="267.86" rx="58.61" ry="94.97"/>
    <ellipse cx="388.16" cy="270.03" rx="36.36" ry="53.73"/>
    <g>
      <path class="cls-2" d="M193.97,305.28s-127.43,103.92,14.74,211.63"/>
      <ellipse class="cls-3" cx="227.54" cy="535.03" rx="33.08" ry="31.77" transform="translate(-352.4 576.37) rotate(-71.04)"/>
    </g>
  </g>
  <path d="M458.98,388.47v11.22s.27,6.24.27,6.24c0,0-43.42,1.45-38.62-18.9l38.35,1.45s0,0,0,0Z"/>
</svg>