<?xml version="1.0" encoding="UTF-8"?>
<svg id="Layer_1" data-name="Layer 1" xmlns="http://www.w3.org/2000/svg" viewBox="0 0 832.56 626.98">
  <defs>
    <style>
      .cls-1, .cls-2 {
        stroke: #000;
        stroke-width: 22px;
      }

      .cls-1, .cls-2, .cls-3, .cls-4 {
        stroke-linecap: round;
      }

      .cls-1, .cls-3, .cls-4 {
        fill: none;
      }

      .cls-1, .cls-4 {
        stroke-linejoin: round;
      }

      .cls-2, .cls-3, .cls-5 {
        stroke-miterlimit: 10;
      }

      .cls-3, .cls-4, .cls-5 {
        stroke: #fff6d4;
      }

      .cls-3, .cls-5 {
        stroke-width: 32px;
      }

      .cls-4 {
        stroke-width: 40px;
      }

      .cls-6 {
        fill: gold;
      }

      .cls-7 {
        fill: #fbc608;
      }

      .cls-5 {
        fill: #fff6d4;
      }
    </style>
  </defs>
  <g>
    <path class="cls-3" d="M565.36,339.61s-130.82,111.54,27.38,218.93"/>
    <circle class="cls-5" cx="613.91" cy="576.78" r="34.19"/>
  </g>
  <path class="cls-4" d="M171.89,376.38s-84.11,28.21-138.94-39.49l-12.95,76.4"/>
  <path class="cls-4" d="M235.2,510.92s-81.49,35.06-141.73-27.9l-6.6,77.21"/>
  <g>
    <rect class="cls-6" x="265.33" y="61.02" width="378.81" height="436.34" transform="translate(616.46 -229.32) rotate(76.09)"/>
    <path class="cls-7" d="M364.9,189.87s-78.08-22.22-95.79-26.56c-23.45-5.69-28.68,11.32-28.68,11.32,0,0-5.03,22.18,15.22,27.63,17.21,4.62,72.12,20.01,89.38,26.03,22.21,7.77,30.11,11.4,34.26,28.17l20.44,82.55c4.18,16.9-1.09,23.87-17.09,41.19-12.43,13.45-53.78,52.88-66.82,65.08-15.34,14.37-.51,31.8-.51,31.8,0,0,12.58,12.69,30.64-3.39,13.64-12.13,72.24-68.54,72.24-68.54,0,0,12.7-13.68,25.22-16.78l76.42-18.92c12.51-3.1,30.08,3.08,30.08,3.08,0,0,78,22.59,95.67,26.97,23.44,5.81,28.63-11.29,28.63-11.29,0,0,4.95-22.32-15.29-27.89-17.17-4.71-72.03-20.33-89.25-26.44-22.21-7.86-30.07-11.58-34.26-28.48l-20.44-82.55c-4.15-16.77,1.09-23.65,17.08-40.88,12.4-13.37,53.69-52.57,66.7-64.68,15.33-14.26.57-31.54.57-31.54,0,0-12.54-12.61-30.59,3.35-13.59,12.09-72.12,68.13-72.12,68.13,0,0-12.68,13.61-25.18,16.71l-76.42,18.92c-12.52,3.1-30.12-3.01-30.12-3.01ZM762.9,248.75l-28.98-117.06c-2.47-10-12.58-16.11-22.58-13.65h0c-9.99,2.48-16.05,12.59-13.57,22.6l28.98,117.06c2.47,9.98,12.55,16.09,22.54,13.62,10.01-2.48,16.1-12.59,13.63-22.57h0ZM662.29,5.96c6.66,1.48,49.2,11.2,49.2,11.2,0,0,2.49-8.33,3.32-12.02.82-3.68,2.29-6.67,11.85-4.28,10.29,2.53,8.83,7.93,8.83,7.93,0,0-1.96,7.27-3.8,15.25,20.39,7.51,26.15,23.56,27.32,28.51.79,3.26,4.8,19.39,6.02,24.32s1.71,9.7-.44,12.34c-2.16,2.6-3.31,7.76-1.92,13.39l41.28,166.73c.26,1.67,1.48,1.73,2.38,2.58,9.01,9.62,5.97,23.46,3.68,26.84-2.32,3.34-12.53,17.05-18.05,25.02-5.53,8.02-5.51,13.78-5.77,18.36,2.82-3.47,6.6-2.32,6.6-2.32l5.53,1.25,8.51-5.78.89-3.53,4.74.75s-.36,2.18-1.26,6.26c-.93,4.02-2.58,4.44-2.58,4.44-5.49,3.12-4.77,7.47-4.77,7.47,0,0,20.44,5.08,23.08,5.81,2.65.76,10.51,1.58,1.3,37.71-9.2,36.15-17.65,30.22-17.65,30.22l-23.71-5.66-1.83,3.95-17.76-4.01s-.48,2.24-3.38,10.31c-2.91,8.01-5.63,16.73-18.13,19.82l-459.11,113.67c-34.53,8.55-52.77,2.58-62.29-35.89l-86.96-351.23c-5.62-22.69.86-47.34,40.31-57.11L631.58,5.87c22.67-5.61,24.08-1.4,30.72.09h0ZM481.21,221.84l24.42,98.62c2.17,8.72-3.15,17.55-11.87,19.72l-42.75,10.58c-8.73,2.16-17.56-3.17-19.72-11.89l-24.42-98.62c-2.16-8.72,3.16-17.55,11.88-19.71h.01s42.75-10.59,42.75-10.59c8.72-2.16,17.53,3.16,19.69,11.87,0,0,0,.01,0,.02"/>
  </g>
  <g>
    <path class="cls-3" d="M477.52,330c-144.08,11.63-95.01,99.54-62.63,163.19"/>
    <circle class="cls-5" cx="421.16" cy="533.36" r="34.19"/>
  </g>
  <polyline class="cls-1" points="600.84 311.06 587.32 400.79 519.35 335.19"/>
  <path class="cls-2" d="M581.83,478.11l-36.83,9,.66-43.06c-.57-1.96.98-3.1,2.51-1.85,8.59,7,30.58,21.93,33.66,35.91Z"/>
</svg>