<?xml version="1.0" encoding="UTF-8"?>
<svg id="Layer_1" data-name="Layer 1" xmlns="http://www.w3.org/2000/svg" viewBox="0 0 548.78 869.04">
  <defs>
    <style>
      .cls-1 {
        fill: #b29551;
      }

      .cls-2 {
        fill: #fff;
        stroke: #000;
        stroke-width: 12px;
      }

      .cls-2, .cls-3, .cls-4 {
        stroke-miterlimit: 10;
      }

      .cls-3, .cls-5 {
        fill: none;
        stroke-linecap: round;
      }

      .cls-3, .cls-5, .cls-4 {
        stroke: #fff6d4;
      }

      .cls-3, .cls-4 {
        stroke-width: 32px;
      }

      .cls-5 {
        stroke-linejoin: round;
        stroke-width: 40px;
      }

      .cls-6 {
        fill: gold;
      }

      .cls-7 {
        fill: #fbc608;
      }

      .cls-4 {
        fill: #fff6d4;
      }
    </style>
  </defs>
  <polygon class="cls-1" points="467.44 593.21 35.45 704.08 26.64 243.38 458.62 132.51 467.44 593.21"/>
  <path class="cls-1" d="M130.08,517.53s-46.55,88.19-56.3,108.14c-12.84,26.41,5.49,30.86,5.49,30.86,0,0,24.37,3.83,36.09-19.02,9.94-19.42,42.4-81.42,53.98-101,14.92-25.2,21.24-34.23,41.78-40.15l101.15-29.11c20.71-5.96,27.38-.67,43.21,15.69,12.28,12.71,47,55.38,57.66,68.87,12.58,15.85,36.73-1.94,36.73-1.94,0,0,18.07-14.93,4.23-33.66-10.44-14.14-60.24-74.6-60.24-74.6,0,0-12.48-12.99-12.74-26.61l-1.59-83.13c-.26-13.6,11.59-33.55,11.59-33.55,0,0,46.95-88.13,56.74-108.03,12.97-26.4-5.46-30.81-5.46-30.81,0,0-24.57-3.73-36.4,19.12-10.03,19.38-42.75,81.35-54.41,100.9-15.03,25.21-21.43,34.2-42.14,40.16l-101.15,29.11c-20.55,5.91-27.13.65-42.85-15.7-12.2-12.68-46.66-55.31-57.23-68.76-12.45-15.85-36.41,1.84-36.41,1.84,0,0-17.96,14.88-4.26,33.6,10.4,14.1,59.8,74.49,59.8,74.49,0,0,12.41,12.97,12.67,26.57l1.59,83.12c.26,13.62-11.51,33.59-11.51,33.59ZM304.31,72.26l-143.44,41.28c-12.26,3.52-22.03,15.19-21.83,26.08h0c.21,10.88,10.32,16.79,22.59,13.26l164.01-59.35c12.23-3.52,12.51-3.24,12.3-14.11-.21-10.89-21.39-10.69-33.62-7.17h0ZM57.67,188.69c3.49-7.49,31.57-53.63,31.57-53.63,0,0,2.95-.18-1.11-.81-4.05-.62-7.13-2.01-1.81-12.78,5.67-11.6,11.54-10.4,11.54-10.4,0,0-4.04-.32,4.72,1.09,14.14-23.17,23.4-27.08,29.44-28.77,3.99-1.13,37.92-18.34,43.96-20.08,6.07-1.75,23.56-9.23,26.05-7.06,2.44,2.18,10.48,5.24,17.37,3.26l108.54-39.08c2.01-.42,40.42-14.68,41.65-15.74,13.56-10.74,20.02-.1,23.34,2.17,6.99,5.85,5.75,4.55,13.52,10.04,7.83,5.49,18.62,62.83,23.87,62.76-3.28-2.85-.93-7.13-.93-7.13l13.25-2.42,1.72-9.35-6.15-4.43,1.06-7.93s2.23-.25,6.72.42c4.42.71,5.16.72,5.16.72,4.75,3.69,6.63-3.83,5.61-2.98,0,0-1.19-8.96.36-11.94,1.58-2.99,9.09-13.66,44.36,4.8,29.31,22.25,20.08,26.05,20.08,26.05l-20.79,26.22,4.09,1.72-9.38,19.97s-1.86,13.73,6.72,16.31c8.51,2.59,10.59,7.03,10.85,20.62l7.01,430.19c.72,37.56,10.13,52.57-37,66.14l-334.21,137.92c-65.13-32.56-120.48-84.66-143.28-119.4L0,238.99c-.47-24.66,54.17-42.83,57.67-50.29h0ZM198.11,386.26l120.84-34.78c10.69-3.08,19.51,2.11,19.7,11.59l.89,46.5c.18,9.5-8.34,19.69-19.04,22.77l-120.84,34.78c-10.69,3.08-19.5-2.12-19.69-11.6v-.02s-.89-46.5-.89-46.5c-.18-9.48,8.33-19.66,19.01-22.73,0,0,.02,0,.02,0"/>
  <path class="cls-5" d="M260.55,704.82s-54.13,70.29-8.03,144.22l-76.45-12.71"/>
  <path class="cls-5" d="M381.23,702.44s39.4,79.48-20.22,143.02l77.46,2.43"/>
  <g>
    <polygon class="cls-6" points="493.13 578.24 142.36 710.15 135.49 241.52 467.68 128.42 493.13 578.24"/>
    <path class="cls-7" d="M214.8,524.7s-36.24,89.71-43.83,110.01c-9.99,26.86,4.28,31.39,4.28,31.39,0,0,18.97,3.89,28.09-19.35,7.74-19.75,33.01-82.83,42.02-102.74,11.62-25.64,16.53-34.82,32.53-40.84l78.74-29.61c16.12-6.06,21.32-.68,33.64,15.96,9.56,12.93,36.59,56.34,44.89,70.06,9.79,16.13,28.6-1.97,28.6-1.97,0,0,14.06-15.18,3.29-34.24-8.13-14.39-46.89-75.88-46.89-75.88,0,0-9.71-13.21-9.92-27.07l-1.24-84.56c-.2-13.84,9.02-34.13,9.02-34.13,0,0,36.55-89.65,44.17-109.9,10.1-26.86-4.25-31.34-4.25-31.34,0,0-19.12-3.79-28.34,19.44-7.81,19.72-33.28,82.75-42.36,102.63-11.7,25.64-16.68,34.79-32.8,40.86l-78.74,29.61c-15.99,6.02-21.12.66-33.36-15.97-9.5-12.9-36.32-56.26-44.55-69.95-9.7-16.12-28.35,1.87-28.35,1.87,0,0-13.98,15.13-3.32,34.18,8.09,14.34,46.55,75.78,46.55,75.78,0,0,9.66,13.19,9.86,27.03l1.24,84.56c.2,13.85-8.96,34.17-8.96,34.17ZM350.44,71.76l-111.67,41.99c-9.54,3.58-17.15,15.46-17,26.53h0c.16,11.07.2,33.76,27.33,30.51l109.09-35.28c9.52-3.58,20.79-22.96,20.62-34.01-.16-11.07-18.86-33.32-28.38-29.74h0ZM111.53,164.82c2.36-3.28,10.58-13.57,10.58-13.57,0,0,1.62-5.22-1.54-5.85-3.15-.63-5.55-2.05-1.41-13,4.41-11.8,8.98-10.58,8.98-10.58,0,0,6.16,1.62,12.97,3.06,11.01-23.57,26.68-31.33,31.39-33.05,3.11-1.15,18.5-6.96,23.2-8.72s9.11-2.71,11.05-.49c1.9,2.22,6.32,3.11,11.68,1.09l159.05-59.81c1.56-.42,1.87-1.81,2.82-2.89,10.56-10.92,22.41-8.6,24.99-6.29,2.53,2.34,24.37,53.27,30.42,58.85,6.09,5.58,11.29,5.1,15.38,5.03-2.55-2.9-.72-7.25-.72-7.25l2.27-6.32-3.45-9.12-3-.72,1.66-5.4s1.9.23,5.39.91c3.44.72,3.47,2.55,3.47,2.55,1.68,5.94,5.76,4.77,5.76,4.77,0,0,2.5-13.38,3.71-16.41,1.23-3.04,15.2-5.97,36.36,10.85,23.34,14.11,14.11,21.17,14.11,21.17l-7.06,10.31,4.88,5.97-15.2,17.91s6.34,14.74,13.03,17.37c6.63,2.63,12.28,14.39,12.48,28.22l10.09,429.63c.56,38.21-8.61,59.22-45.3,73.02l-335.06,126.01c-21.65,8.14-23.92-16.79-24.56-60.43l-11.31-450.81c2.89-19.9-27.5-54.99-28.22-61.51l21.08-44.5ZM267.76,391.16l94.08-35.38c8.32-3.14,15.19,2.14,15.34,11.79l.69,47.31c.14,9.66-6.5,20.03-14.82,23.16l-94.94,39.38c-8.32,3.13-14.32-6.15-14.46-15.8v-.02s-.69-47.31-.69-47.31c-.14-9.64,6.48-20,14.8-23.13,0,0,.01,0,.02,0"/>
  </g>
  <ellipse class="cls-2" cx="457.17" cy="338.6" rx="58.61" ry="94.97"/>
  <ellipse cx="473.63" cy="307.49" rx="36.36" ry="53.73"/>
  <g>
    <path class="cls-3" d="M334.31,445.94c12.8,58.33-6.51,113.97,146.53,181.27"/>
    <ellipse class="cls-4" cx="493.7" cy="626.43" rx="39.11" ry="36.86" transform="translate(-67 59.19) rotate(-6.43)"/>
  </g>
  <path d="M533.09,444.55l.69,26.04-.1,10.81c.23,5.05-3.81,4.03-8.81,3.33-11.29-1.57-28.73-8.12-30.3-33.43-.3-4.85,4.19-9.97,8.98-11.87l29.4-10.13s.14,15.25.14,15.25Z"/>
</svg>