<?xml version="1.0" encoding="UTF-8"?>
<svg id="Layer_1" data-name="Layer 1" xmlns="http://www.w3.org/2000/svg" viewBox="0 0 457.39 426.1">
  <defs>
    <style>
      .cls-1 {
        fill: none;
        stroke-linejoin: round;
      }

      .cls-1, .cls-2 {
        stroke: #000;
        stroke-linecap: round;
        stroke-width: 22px;
      }

      .cls-2 {
        stroke-miterlimit: 10;
      }

      .cls-3 {
        fill: gold;
      }

      .cls-4 {
        fill: #fbc608;
      }
    </style>
  </defs>
  <g>
    <rect class="cls-3" x="33.4" y="88.63" width="378.81" height="293.77"/>
    <path class="cls-4" d="M114.52,279.78s-40.34,47.43-48.81,58.3c-11.16,14.4,4.1,20.57,4.1,20.57,0,0,20.32,6.87,30.48-5.48,8.62-10.5,36.75-43.9,46.75-54.2,12.88-13.26,18.3-17.84,35.58-17.84h85.04c17.41,0,22.91,4.57,35.88,17.84,10.07,10.3,38.41,43.7,47.11,54.2,10.26,12.35,30.74,5.48,30.74,5.48,0,0,15.34-6.17,4.08-20.57-8.5-10.87-49.17-58.3-49.17-58.3,0,0-10.22-10.51-10.22-19.2v-53.01c0-8.67,10.22-19.16,10.22-19.16,0,0,40.67-47.32,49.17-58.16,11.27-14.38-4.08-20.53-4.08-20.53,0,0-20.48-6.85-30.74,5.48-8.7,10.46-37.04,43.79-47.11,54.05-12.97,13.24-18.47,17.78-35.88,17.78h-85.04c-17.27,0-22.7-4.54-35.58-17.78-10-10.27-38.13-43.59-46.75-54.05-10.16-12.32-30.48-5.48-30.48-5.48,0,0-15.25,6.16-4.1,20.53,8.47,10.84,48.81,58.16,48.81,58.16,0,0,10.16,10.49,10.16,19.16v53.01c0,8.68-10.16,19.2-10.16,19.2ZM267.32,29.2h-120.59c-10.3,0-18.67,5.61-18.67,12.55h0c0,6.94,8.36,12.53,18.67,12.53h120.59c10.28,0,18.64-5.6,18.64-12.53s-8.36-12.56-18.64-12.56h0ZM7.47,55.66c3.04-4.11,22.7-30.34,22.7-30.34,0,0-7.49-2.98-10.87-4.11-3.37-1.13-5.93-2.58-1.31-8.43,4.93-6.32,9.81-4.49,9.81-4.49,0,0,6.59,2.45,13.89,4.95C53.87,1.13,70.83-.03,75.92,0,79.27.01,95.89,0,100.97,0s9.83.45,11.88,2.28c2.01,1.83,6.74,3.42,12.53,3.42h171.76c1.69.1,2.03-.69,3.08-1.14,11.51-4.33,24.2-.11,26.94,1.94,2.68,2.05,13.54,10.95,19.95,15.84,6.46,4.91,12.05,5.83,16.44,6.74-2.69-2.41-.66-4.69-.66-4.69l2.54-3.41-3.56-6.5-3.21-1.15,1.87-2.98s2.03.59,5.78,1.83c3.68,1.26,3.68,2.41,3.68,2.41,1.71,4.1,6.11,4.32,6.11,4.32,0,0,9.84-12.54,11.19-14.14,1.37-1.61,4.06-6.61,36.92,5.25,32.88,11.86,25.1,16.42,25.1,16.42l-11.19,14.58,3.39,1.84-8.16,10.96s2.06.67,9.19,3.88c7.08,3.2,14.88,6.38,14.88,15.05v318.44c0,23.95-10.18,34.9-49.81,34.9H45.75c-23.38,0-45.75-8.23-45.75-35.58V75.72c0-15.73,4.43-15.96,7.47-20.06h0ZM173.5,208.94h101.6c8.99,0,16.28,4.9,16.28,10.95v29.65c0,6.05-7.29,10.96-16.28,10.96h-101.6c-8.99,0-16.27-4.9-16.28-10.95h0v-29.66c0-6.05,7.28-10.95,16.26-10.95,0,0,.01,0,.02,0"/>
  </g>
  <polyline class="cls-1" points="304.81 153.36 381.15 202.41 293.49 237.58"/>
  <path class="cls-2" d="M445.87,246.63l.1,21.97-30.11-2.07c-1.47-.1-2.13-1.9-1.07-2.92,5.96-5.73,20.66-18.59,31.08-16.98Z"/>
</svg>