<?xml version="1.0" encoding="UTF-8"?>
<svg id="Layer_1" data-name="Layer 1" xmlns="http://www.w3.org/2000/svg" viewBox="0 0 833.45 829.01">
  <defs>
    <style>
      .cls-1, .cls-2 {
        stroke: #000;
        stroke-width: 22px;
      }

      .cls-1, .cls-2, .cls-3, .cls-4 {
        stroke-linecap: round;
      }

      .cls-1, .cls-3, .cls-4 {
        fill: none;
      }

      .cls-1, .cls-4 {
        stroke-linejoin: round;
      }

      .cls-2, .cls-3, .cls-5 {
        stroke-miterlimit: 10;
      }

      .cls-3, .cls-4, .cls-5 {
        stroke: #fff6d4;
      }

      .cls-3, .cls-5 {
        stroke-width: 32px;
      }

      .cls-4 {
        stroke-width: 40px;
      }

      .cls-6 {
        fill: gold;
      }

      .cls-7 {
        fill: #fbc608;
      }

      .cls-5 {
        fill: #fff6d4;
      }
    </style>
  </defs>
  <g>
    <path class="cls-3" d="M580.52,384.93s-12.73,171.44,174.88,134.52"/>
    <circle class="cls-5" cx="783.26" cy="517.23" r="34.19"/>
  </g>
  <path class="cls-4" d="M305.1,644.56s-39.1,79.63-125.8,70.98l45.2,62.94"/>
  <path class="cls-4" d="M476.13,664.66s47.42,74.98-5.3,144.35l77.29-5.61"/>
  <g>
    <rect class="cls-6" x="236.07" y="160.48" width="378.81" height="436.34" transform="translate(118.16 -100.9) rotate(15.68)"/>
    <path class="cls-7" d="M303.46,412.67s-57.88,56.93-70.39,70.19c-16.52,17.58-4.31,30.53-4.31,30.53,0,0,16.8,15.32,31.54.41,12.52-12.68,53.01-52.84,66.77-64.87,17.72-15.48,24.78-20.56,41.41-15.89l81.87,22.98c16.76,4.7,20.22,12.73,27.38,35.2,5.56,17.45,19.44,72.87,23.6,90.24,4.92,20.44,27.4,16.14,27.4,16.14,0,0,17.25-4.68,12.18-28.32-3.82-17.85-23.94-96.66-23.94-96.66,0,0-5.62-17.8-2.14-30.22l21.28-75.8c3.48-12.4,17.53-24.64,17.53-24.64,0,0,58.15-56.68,70.69-69.88,16.62-17.51,4.32-30.47,4.32-30.47,0,0-16.97-15.33-31.8-.48-12.58,12.61-53.24,52.61-67.06,64.57-17.8,15.43-24.92,20.44-41.68,15.73l-81.87-22.98c-16.63-4.67-20.03-12.62-27.12-35.04-5.51-17.38-19.21-72.64-23.31-89.93-4.83-20.37-27.14-16.07-27.14-16.07,0,0-17.16,4.68-12.19,28.26,3.8,17.79,23.64,96.36,23.64,96.36,0,0,5.58,17.74,2.1,30.15l-21.28,75.8c-3.49,12.42-17.49,24.71-17.49,24.71ZM551.16,95.63l-116.11-32.59c-9.92-2.79-20.22,2.98-23.02,12.9h0c-2.78,9.92,3.02,20.18,12.95,22.97l116.11,32.59c9.9,2.78,20.19-2.97,22.97-12.88,2.79-9.93-3-20.22-12.9-23h0ZM290.34,63.26c4.58-5.06,34.03-37.25,34.03-37.25,0,0-6.02-6.28-8.82-8.82-2.79-2.53-4.67-5.29,2.13-12.42,7.28-7.7,11.25-3.76,11.25-3.76,0,0,5.36,5.29,11.38,10.83,16.6-14.03,33.4-11.11,38.28-9.68,3.23.93,19.23,5.4,24.12,6.77s9.28,3.3,10.52,6.47c1.2,3.16,5.12,6.71,10.69,8.28l165.37,46.42c1.58.6,2.24-.44,3.42-.79,12.82-3.09,23.35,6.39,25.16,10.05,1.76,3.66,8.64,19.32,12.85,28.05,4.25,8.77,9.26,11.59,13.12,14.09-1.63-4.17,1.24-6.89,1.24-6.89l3.81-4.19-.82-10.25-2.63-2.52,3-3.75s1.72,1.39,4.83,4.18c3.04,2.79,2.58,4.44,2.58,4.44,0,6.32,4.14,7.83,4.14,7.83,0,0,14.51-15.27,16.45-17.2,1.97-1.93,6.56-8.36,33.44,17.48,26.9,25.85,17.57,30.27,17.57,30.27l-16.62,17.82,2.53,3.54-12.25,13.46s1.71,1.52,7.29,8.03c5.53,6.48,11.77,13.15,8.29,25.55l-127.82,455.37c-9.61,34.25-23.81,47.16-61.96,36.45l-348.37-97.79c-22.51-6.32-40.75-24.13-29.76-63.25l126.36-450.16c6.31-22.49,10.67-21.63,15.24-26.67h0ZM388.68,327.32l97.82,27.46c8.65,2.42,13.71,11.4,11.28,20.06l-11.9,42.41c-2.43,8.66-11.42,13.7-20.08,11.28l-97.82-27.46c-8.65-2.43-13.7-11.41-11.28-20.06h0s11.9-42.42,11.9-42.42c2.43-8.65,11.4-13.69,20.05-11.26,0,0,.01,0,.02,0"/>
  </g>
  <g>
    <path class="cls-3" d="M279.25,308.9s-20.62-84.12-189.95-56.44"/>
    <circle class="cls-5" cx="50.19" cy="269.36" r="34.19"/>
  </g>
  <polyline class="cls-1" points="560.38 293.7 614.65 366.43 520.22 368.6"/>
  <path class="cls-2" d="M641.61,435.9l-5.88,21.17-28.41-10.18c-1.39-.5-1.54-2.41-.23-3.1,7.29-3.89,24.94-12.27,34.52-7.89Z"/>
</svg>